<mxfile host="app.diagrams.net" modified="2023-07-26T09:40:42.724Z" agent="Mozilla/5.0 (Macintosh; Intel Mac OS X 10_15_7) AppleWebKit/537.36 (KHTML, like Gecko) Chrome/114.0.0.0 Safari/537.36" etag="L_gYDBRxnCj1NvgyPsTZ" version="21.6.5" type="github">
  <diagram id="C5RBs43oDa-KdzZeNtuy" name="Page-1">
    <mxGraphModel dx="1306" dy="726" grid="1" gridSize="10" guides="1" tooltips="1" connect="1" arrows="1" fold="1" page="1" pageScale="1" pageWidth="827" pageHeight="1169" math="0" shadow="0">
      <root>
        <mxCell id="WIyWlLk6GJQsqaUBKTNV-0" />
        <mxCell id="WIyWlLk6GJQsqaUBKTNV-1" parent="WIyWlLk6GJQsqaUBKTNV-0" />
        <mxCell id="-ynvjf70cYfotxJSQ-TS-6" value="" style="edgeStyle=orthogonalEdgeStyle;rounded=0;orthogonalLoop=1;jettySize=auto;html=1;" edge="1" parent="WIyWlLk6GJQsqaUBKTNV-1" source="-ynvjf70cYfotxJSQ-TS-0" target="-ynvjf70cYfotxJSQ-TS-5">
          <mxGeometry relative="1" as="geometry" />
        </mxCell>
        <mxCell id="-ynvjf70cYfotxJSQ-TS-0" value="&lt;div style=&quot;box-sizing:border-box;width:100%;background:#e4e4e4;padding:2px;&quot;&gt;&lt;div style=&quot;background-color:#ffffff;padding:0px 0px 0px 2px;&quot;&gt;&lt;div style=&quot;font-family: Menlo; font-size: 12pt;&quot;&gt;&lt;p style=&quot;background-color:#e8f2fe;margin:0;&quot;&gt;ENTRTN_OPER_SCH&lt;/p&gt;&lt;/div&gt;&lt;/div&gt;&lt;/div&gt;&lt;table style=&quot;width:100%;font-size:1em;&quot; cellpadding=&quot;2&quot; cellspacing=&quot;0&quot;&gt;&lt;tbody&gt;&lt;tr&gt;&lt;td&gt;PK&lt;/td&gt;&lt;td&gt;GXP_ENTRTN_OPER_SCH_ID&lt;/td&gt;&lt;/tr&gt;&lt;tr&gt;&lt;td&gt;&lt;br&gt;&lt;/td&gt;&lt;td&gt;&lt;br&gt;&lt;/td&gt;&lt;/tr&gt;&lt;tr&gt;&lt;td&gt;&lt;/td&gt;&lt;td&gt;&lt;br&gt;&lt;/td&gt;&lt;/tr&gt;&lt;/tbody&gt;&lt;/table&gt;" style="verticalAlign=top;align=left;overflow=fill;html=1;whiteSpace=wrap;" vertex="1" parent="WIyWlLk6GJQsqaUBKTNV-1">
          <mxGeometry x="30" y="270" width="220" height="90" as="geometry" />
        </mxCell>
        <mxCell id="-ynvjf70cYfotxJSQ-TS-5" value="&lt;div style=&quot;box-sizing:border-box;width:100%;background:#e4e4e4;padding:2px;&quot;&gt;&lt;div style=&quot;background-color:#ffffff;padding:0px 0px 0px 2px;&quot;&gt;&lt;div style=&quot;font-family: Menlo; font-size: 12pt;&quot;&gt;&lt;p style=&quot;background-color:#e8f2fe;margin:0;&quot;&gt;t_dpa_entertainment_schedule_toggle&lt;/p&gt;&lt;/div&gt;&lt;/div&gt;&lt;/div&gt;&lt;table style=&quot;width:100%;font-size:1em;&quot; cellpadding=&quot;2&quot; cellspacing=&quot;0&quot;&gt;&lt;tbody&gt;&lt;tr&gt;&lt;td&gt;PK&lt;/td&gt;&lt;td&gt;id&lt;/td&gt;&lt;/tr&gt;&lt;tr&gt;&lt;td&gt;field&lt;/td&gt;&lt;td&gt;gxp_entertainment_operational_schedule_id&lt;br&gt;&lt;div style=&quot;background-color: rgb(255, 255, 255); color: rgb(51, 51, 51); font-family: Menlo-Regular, monospace; font-size: 13.5pt;&quot;&gt;pre_day_sales_toggle&lt;/div&gt;&lt;div style=&quot;background-color: rgb(255, 255, 255); color: rgb(51, 51, 51); font-family: Menlo-Regular, monospace; font-size: 13.5pt;&quot;&gt;on_day_sales_toggle&lt;/div&gt;&lt;div style=&quot;background-color: rgb(255, 255, 255); color: rgb(51, 51, 51); font-family: Menlo-Regular, monospace; font-size: 13.5pt;&quot;&gt;is_published&lt;/div&gt;&lt;div style=&quot;background-color: rgb(255, 255, 255); color: rgb(51, 51, 51); font-family: Menlo-Regular, monospace; font-size: 13.5pt;&quot;&gt;&lt;br&gt;&lt;/div&gt;&lt;/td&gt;&lt;/tr&gt;&lt;tr&gt;&lt;td&gt;&lt;/td&gt;&lt;td&gt;&lt;br&gt;&lt;/td&gt;&lt;/tr&gt;&lt;/tbody&gt;&lt;/table&gt;" style="verticalAlign=top;align=left;overflow=fill;html=1;whiteSpace=wrap;" vertex="1" parent="WIyWlLk6GJQsqaUBKTNV-1">
          <mxGeometry x="330" y="270" width="350" height="120" as="geometry" />
        </mxCell>
        <mxCell id="-ynvjf70cYfotxJSQ-TS-8" value="&lt;div style=&quot;box-sizing:border-box;width:100%;background:#e4e4e4;padding:2px;&quot;&gt;&lt;div style=&quot;background-color:#ffffff;padding:0px 0px 0px 2px;&quot;&gt;&lt;div style=&quot;&quot;&gt;&lt;p style=&quot;background-color: rgb(232, 242, 254); margin: 0px;&quot;&gt;&lt;font face=&quot;Menlo&quot;&gt;t_dpa_basic_setting_entertainment&lt;/font&gt;&lt;br&gt;&lt;/p&gt;&lt;/div&gt;&lt;/div&gt;&lt;/div&gt;&lt;table style=&quot;width:100%;font-size:1em;&quot; cellpadding=&quot;2&quot; cellspacing=&quot;0&quot;&gt;&lt;tbody&gt;&lt;tr&gt;&lt;td&gt;PK&lt;/td&gt;&lt;td&gt;id&lt;/td&gt;&lt;/tr&gt;&lt;tr&gt;&lt;td&gt;field&lt;/td&gt;&lt;td&gt;gxp_entertainment_id&lt;br&gt;&lt;div style=&quot;background-color: rgb(255, 255, 255); color: rgb(51, 51, 51); font-family: Menlo-Regular, monospace; font-size: 13.5pt;&quot;&gt;publish_toggle&lt;/div&gt;&lt;div style=&quot;background-color: rgb(255, 255, 255); color: rgb(51, 51, 51); font-family: Menlo-Regular, monospace; font-size: 13.5pt;&quot;&gt;&lt;br&gt;&lt;/div&gt;&lt;div style=&quot;background-color: rgb(255, 255, 255); color: rgb(51, 51, 51); font-family: Menlo-Regular, monospace; font-size: 13.5pt;&quot;&gt;&lt;br&gt;&lt;/div&gt;&lt;/td&gt;&lt;/tr&gt;&lt;tr&gt;&lt;td&gt;&lt;br&gt;&lt;/td&gt;&lt;td&gt;&lt;br&gt;&lt;/td&gt;&lt;/tr&gt;&lt;/tbody&gt;&lt;/table&gt;" style="verticalAlign=top;align=left;overflow=fill;html=1;whiteSpace=wrap;" vertex="1" parent="WIyWlLk6GJQsqaUBKTNV-1">
          <mxGeometry x="340" y="70" width="350" height="150" as="geometry" />
        </mxCell>
        <mxCell id="-ynvjf70cYfotxJSQ-TS-12" style="edgeStyle=orthogonalEdgeStyle;rounded=0;orthogonalLoop=1;jettySize=auto;html=1;exitX=1;exitY=0.5;exitDx=0;exitDy=0;entryX=0;entryY=0.5;entryDx=0;entryDy=0;" edge="1" parent="WIyWlLk6GJQsqaUBKTNV-1" source="-ynvjf70cYfotxJSQ-TS-10" target="-ynvjf70cYfotxJSQ-TS-8">
          <mxGeometry relative="1" as="geometry" />
        </mxCell>
        <mxCell id="-ynvjf70cYfotxJSQ-TS-10" value="&lt;div style=&quot;box-sizing:border-box;width:100%;background:#e4e4e4;padding:2px;&quot;&gt;&lt;div style=&quot;background-color:#ffffff;padding:0px 0px 0px 2px;&quot;&gt;&lt;div style=&quot;font-family: Menlo; font-size: 12pt;&quot;&gt;&lt;div style=&quot;padding: 0px 0px 0px 2px;&quot;&gt;&lt;div style=&quot;font-size: 12pt;&quot;&gt;&lt;p style=&quot;background-color:#e8f2fe;margin:0;&quot;&gt;gxp_entrtn&lt;/p&gt;&lt;/div&gt;&lt;/div&gt;&lt;/div&gt;&lt;/div&gt;&lt;/div&gt;&lt;table style=&quot;width:100%;font-size:1em;&quot; cellpadding=&quot;2&quot; cellspacing=&quot;0&quot;&gt;&lt;tbody&gt;&lt;tr&gt;&lt;td&gt;PK&lt;/td&gt;&lt;td&gt;GXP_ENTRTN_ID&lt;/td&gt;&lt;/tr&gt;&lt;tr&gt;&lt;td&gt;&lt;br&gt;&lt;/td&gt;&lt;td&gt;&lt;br&gt;&lt;/td&gt;&lt;/tr&gt;&lt;tr&gt;&lt;td&gt;&lt;/td&gt;&lt;td&gt;&lt;br&gt;&lt;/td&gt;&lt;/tr&gt;&lt;/tbody&gt;&lt;/table&gt;" style="verticalAlign=top;align=left;overflow=fill;html=1;whiteSpace=wrap;" vertex="1" parent="WIyWlLk6GJQsqaUBKTNV-1">
          <mxGeometry x="30" y="100" width="220" height="90" as="geometry" />
        </mxCell>
        <mxCell id="-ynvjf70cYfotxJSQ-TS-13" value="&lt;div style=&quot;box-sizing:border-box;width:100%;background:#e4e4e4;padding:2px;&quot;&gt;&lt;div style=&quot;background-color:#ffffff;padding:0px 0px 0px 2px;&quot;&gt;&lt;div style=&quot;font-family: Menlo; font-size: 12pt;&quot;&gt;&lt;p style=&quot;background-color:#e8f2fe;margin:0;&quot;&gt;ENTRTN_OPER_SCH&lt;/p&gt;&lt;/div&gt;&lt;/div&gt;&lt;/div&gt;&lt;table style=&quot;width:100%;font-size:1em;&quot; cellpadding=&quot;2&quot; cellspacing=&quot;0&quot;&gt;&lt;tbody&gt;&lt;tr&gt;&lt;td&gt;PK&lt;/td&gt;&lt;td&gt;GXP_ENTRTN_OPER_SCH_ID&lt;/td&gt;&lt;/tr&gt;&lt;tr&gt;&lt;td&gt;&lt;br&gt;&lt;/td&gt;&lt;td&gt;&lt;br&gt;&lt;/td&gt;&lt;/tr&gt;&lt;tr&gt;&lt;td&gt;field&lt;/td&gt;&lt;td&gt;&lt;div style=&quot;border-color: var(--border-color); background-color: rgb(255, 255, 255); color: rgb(51, 51, 51); font-family: Menlo-Regular, monospace; font-size: 13.5pt;&quot;&gt;pre_day_sales_toggle&lt;/div&gt;&lt;div style=&quot;border-color: var(--border-color); background-color: rgb(255, 255, 255); color: rgb(51, 51, 51); font-family: Menlo-Regular, monospace; font-size: 13.5pt;&quot;&gt;on_day_sales_toggle&lt;/div&gt;&lt;/td&gt;&lt;/tr&gt;&lt;/tbody&gt;&lt;/table&gt;" style="verticalAlign=top;align=left;overflow=fill;html=1;whiteSpace=wrap;" vertex="1" parent="WIyWlLk6GJQsqaUBKTNV-1">
          <mxGeometry x="20" y="515" width="220" height="140" as="geometry" />
        </mxCell>
      </root>
    </mxGraphModel>
  </diagram>
</mxfile>
